<svg xmlns="http://www.w3.org/2000/svg" width="80mm" height="60mm" viewBox="0 0 80 60"><g data-operation="cut" fill="none" stroke="#000" stroke-width="0.1"><path d="M 7 7 L 20 7 L 20 20 L 7 20 Z"/><path d="M 24 7 L 37 7 L 37 20 L 24 20 Z"/><path d="M 41 7 L 54 7 L 54 20 L 41 20 Z"/><path d="M 58 7 L 71 7 L 71 20 L 58 20 Z"/><path d="M 7 27 L 20 27 L 20 40 L 7 40 Z"/><path d="M 24 27 L 37 27 L 37 40 L 24 40 Z"/><path d="M 41 27 L 54 27 L 54 40 L 41 40 Z"/><path d="M 58 27 L 71 27 L 71 40 L 58 40 Z"/></g></svg>